<svg xmlns="http://www.w3.org/2000/svg" width="19.809" height="18.129" viewBox="0 0 19.809 18.129"><defs><style>.a{fill:#fff;}</style></defs><g transform="translate(0)"><g transform="translate(13.214 13.189)"><path class="a" d="M344.017,362.612a2.47,2.47,0,1,0,2.47,2.47A2.473,2.473,0,0,0,344.017,362.612Zm0,3.458a.988.988,0,1,1,.988-.988A.989.989,0,0,1,344.017,366.07Z" transform="translate(-341.547 -362.612)"/></g><g transform="translate(0 0)"><path class="a" d="M19.651,25.348a.74.74,0,0,0-.583-.284H4.574l-.667-2.79a.741.741,0,0,0-.721-.569H.741a.741.741,0,1,0,0,1.482H2.6L5.01,33.263a.741.741,0,0,0,.721.569H17.265a.741.741,0,0,0,.719-.563l1.8-7.286A.742.742,0,0,0,19.651,25.348Zm-2.966,7H6.315l-1.387-5.8H18.121Z" transform="translate(0 -21.705)"/></g><g transform="translate(4.249 13.189)"><path class="a" d="M112.276,362.612a2.47,2.47,0,1,0,2.47,2.47A2.473,2.473,0,0,0,112.276,362.612Zm0,3.458a.988.988,0,1,1,.988-.988A.989.989,0,0,1,112.276,366.07Z" transform="translate(-109.806 -362.612)"/></g></g></svg>