<?xml version="1.0" encoding="UTF-8"?>
<svg xmlns="http://www.w3.org/2000/svg" xmlns:xlink="http://www.w3.org/1999/xlink" width="30pt" height="30pt" viewBox="0 0 30 30" version="1.1">
<g id="surface1">
<path style=" stroke:none;fill-rule:nonzero;fill:rgb(0%,0%,0%);fill-opacity:1;" d="M 1.550781 29.980469 C 1.152344 29.980469 0.757812 29.832031 0.460938 29.527344 C -0.144531 28.925781 -0.144531 27.949219 0.460938 27.347656 L 27.355469 0.453125 C 27.957031 -0.152344 28.933594 -0.152344 29.535156 0.453125 C 30.136719 1.054688 30.136719 2.03125 29.535156 2.632812 L 2.640625 29.527344 C 2.339844 29.828125 1.945312 29.980469 1.550781 29.980469 Z M 1.550781 29.980469 "/>
<path style=" stroke:none;fill-rule:nonzero;fill:rgb(0%,0%,0%);fill-opacity:1;" d="M 28.445312 29.980469 C 28.050781 29.980469 27.65625 29.832031 27.355469 29.527344 L 0.460938 2.632812 C -0.144531 2.03125 -0.144531 1.054688 0.460938 0.453125 C 1.0625 -0.152344 2.039062 -0.152344 2.640625 0.453125 L 29.535156 27.347656 C 30.136719 27.949219 30.136719 28.925781 29.535156 29.527344 C 29.234375 29.828125 28.839844 29.980469 28.445312 29.980469 Z M 28.445312 29.980469 "/>
</g>
</svg>
