<svg xmlns="http://www.w3.org/2000/svg" width="43.164" height="17.141" viewBox="0 0 43.164 17.141">
  <g id="google-pay-primary-logo" transform="translate(0 0.024)">
    <g id="Group_4809" data-name="Group 4809" transform="translate(18.82 0.966)">
      <path id="Path_7319" data-name="Path 7319" d="M1042.495,62.137V67.16H1040.9V54.753h4.227a3.819,3.819,0,0,1,2.737,1.074,3.589,3.589,0,0,1,0,5.252,3.807,3.807,0,0,1-2.737,1.056l-2.632,0Zm0-5.856v4.332h2.672a2.159,2.159,0,0,0,1.618-3.632c-.015-.014-.027-.029-.042-.042a2.08,2.08,0,0,0-1.577-.658Zm10.187,2.114a3.953,3.953,0,0,1,2.79.944,3.351,3.351,0,0,1,1.021,2.589V67.16h-1.524V65.981h-.069a3.045,3.045,0,0,1-2.635,1.456,3.419,3.419,0,0,1-2.347-.832,2.656,2.656,0,0,1-.944-2.079,2.522,2.522,0,0,1,1-2.1,4.2,4.2,0,0,1,2.66-.779,4.715,4.715,0,0,1,2.338.519V61.8a1.814,1.814,0,0,0-.658-1.41,2.256,2.256,0,0,0-1.539-.58,2.443,2.443,0,0,0-2.114,1.126l-1.4-.884a3.9,3.9,0,0,1,3.426-1.662Zm-2.063,6.167a1.275,1.275,0,0,0,.528,1.04,1.944,1.944,0,0,0,1.239.416,2.547,2.547,0,0,0,1.794-.745,2.329,2.329,0,0,0,.792-1.75,3.256,3.256,0,0,0-2.079-.595,2.692,2.692,0,0,0-1.62.468,1.4,1.4,0,0,0-.653,1.166Zm14.626-5.891L1059.923,70.9h-1.645l1.974-4.28-3.5-7.952h1.732l2.53,6.1h.034l2.461-6.1Z" transform="translate(-1040.9 -54.752)" fill="#fff"/>
    </g>
    <path id="Path_7320" data-name="Path 7320" d="M401.045,324.45a8.473,8.473,0,0,0-.123-1.45H394.2v2.745h3.849a3.3,3.3,0,0,1-1.423,2.166v1.783h2.3a6.966,6.966,0,0,0,2.121-5.243Z" transform="translate(-387.073 -317.183)" fill="#4285f4"/>
    <path id="Path_7321" data-name="Path 7321" d="M48.368,475.464a6.816,6.816,0,0,0,4.725-1.721l-2.3-1.783a4.322,4.322,0,0,1-6.428-2.26H42v1.837A7.125,7.125,0,0,0,48.368,475.464Z" transform="translate(-41.241 -461.231)" fill="#34a853"/>
    <path id="Path_7322" data-name="Path 7322" d="M3.126,221.765a4.271,4.271,0,0,1,0-2.728V217.2H.759a7.127,7.127,0,0,0,0,6.4Z" transform="translate(0 -213.296)" fill="#fbbc04"/>
    <path id="Path_7323" data-name="Path 7323" d="M48.368,2.8A3.871,3.871,0,0,1,51.1,3.867l2.036-2.034a6.857,6.857,0,0,0-4.77-1.857A7.129,7.129,0,0,0,42,3.9l2.367,1.837A4.263,4.263,0,0,1,48.368,2.8Z" transform="translate(-41.241 0)" fill="#ea4335"/>
  </g>
</svg>
