<svg xmlns="http://www.w3.org/2000/svg" width="103.936" height="50.053" viewBox="0 0 103.936 50.053">
  <g id="logo" transform="translate(-200.9 -376.699)">
    <g id="Group_2879" data-name="Group 2879" transform="translate(200.9 376.699)">
      <g id="Group_2878" data-name="Group 2878" transform="translate(0)">
        <path id="Path_1" data-name="Path 1" d="M419.981,452.17h-4.756V423.582l21.759,28.088-1.01.767L419.84,432.019Z" transform="translate(-382.379 -416.397)" fill="#141639"/>
        <path id="Path_2" data-name="Path 2" d="M532.616,436.748V423.582h-3.9v1.835H531v11.331Z" transform="translate(-478.48 -416.397)" fill="#141639"/>
        <rect id="Rectangle_842" data-name="Rectangle 842" width="4.756" height="28.855" transform="translate(24.26 7.185)" fill="#141639"/>
        <g id="Group_2876" data-name="Group 2876" transform="translate(0 7.528)">
          <path id="Path_3" data-name="Path 3" d="M216.213,428.513l1.693-2.427h1.373l.113,10.139h-1.242q-1.167-4.665-3.452-6.81a7.46,7.46,0,0,0-5.258-2.145,5.689,5.689,0,0,0-4.063,1.487,4.8,4.8,0,0,0-1.58,3.634,4.486,4.486,0,0,0,.6,2.344,4.436,4.436,0,0,0,1.8,1.638,20.009,20.009,0,0,0,4.506,1.342,26.437,26.437,0,0,1,6.52,2.045,6.715,6.715,0,0,1,3.715,6.283,8.356,8.356,0,0,1-2.53,6.236,8.956,8.956,0,0,1-6.537,2.474,11,11,0,0,1-7.487-2.784l-2.126,2.6H200.9V443.788h1.354a12.25,12.25,0,0,0,3.537,7.036,8.816,8.816,0,0,0,6.189,2.577,6.382,6.382,0,0,0,4.543-1.646,5.272,5.272,0,0,0,1.759-4,4.182,4.182,0,0,0-.658-2.342,4.994,4.994,0,0,0-2.088-1.693,32.306,32.306,0,0,0-5.625-1.665q-4.609-1.091-6.283-2.445a6.618,6.618,0,0,1-2.352-5.437,8.02,8.02,0,0,1,8.334-8.352,9.026,9.026,0,0,1,3.33.621A11.754,11.754,0,0,1,216.213,428.513Z" transform="translate(-200.9 -425.823)" fill="#141639"/>
        </g>
        <g id="Group_2877" data-name="Group 2877" transform="translate(58.126)">
          <path id="Path_4" data-name="Path 4" d="M780.289,594.094a3.9,3.9,0,0,0,.561-.713Z" transform="translate(-749.622 -560.174)" fill="#141639"/>
          <path id="Path_5" data-name="Path 5" d="M625.56,398.227c-.114.113-.264.113-.452,0h-.567a10.131,10.131,0,0,0-4.36,1.189q-2.775,1.3-2.549,2.719a2.416,2.416,0,0,0,1.189,1.529,13.285,13.285,0,0,1,2.265,1.925,3.89,3.89,0,0,1,1.076,2.549,3.678,3.678,0,0,1-1.811,3.114,5.9,5.9,0,0,1-3.511,1.133q-3.683,0-3.681-2.717a3.734,3.734,0,0,1,.17-1.076q.338-1.133.906-1.133c.075,0,.113.075.113.225a1.333,1.333,0,0,0,.595,1.416,2.736,2.736,0,0,0,1.67.567,3.007,3.007,0,0,0,2.067-.851,2.5,2.5,0,0,0,.933-1.868,1.8,1.8,0,0,0-.4-1.133,18.323,18.323,0,0,1-2.775-3.059l-.057.113q-.736,1.191-1.982,3.116-.9,1.253-3,3.92l-.561.713-.009.011a1.783,1.783,0,0,1-.363.328c-.123.1-.254.2-.394.294a5.9,5.9,0,0,1-3.511,1.133q-3.68,0-3.681-2.717a3.738,3.738,0,0,1,.17-1.076q.34-1.133.906-1.133c.077,0,.113.075.113.225a1.335,1.335,0,0,0,.595,1.416,2.744,2.744,0,0,0,1.672.567,3,3,0,0,0,2.066-.851,2.5,2.5,0,0,0,.935-1.868,1.806,1.806,0,0,0-.4-1.133,18.4,18.4,0,0,1-2.774-3.059l-.057.113q-.738,1.191-1.983,3.116c-.328.454-.771,1.047-1.335,1.782a14.118,14.118,0,0,1-1.382,1.928,13.245,13.245,0,0,1-.9.988.08.08,0,0,0-.015.017c-.043.041-.084.083-.127.123a.035.035,0,0,1-.011.011,6.88,6.88,0,0,1-5.63,2.173A3.9,3.9,0,0,1,591,409.341a5.738,5.738,0,0,1-.051-1.261q-.959,1.338-2.214,2.777a6.245,6.245,0,0,1-4.757,2.492q-3.8,0-3.794-4.418,0-4.7,4.021-12.855a72.6,72.6,0,0,1,8.325-13.422q4.814-6.172,7.079-5.946a2.877,2.877,0,0,1,1.983,1.189,6.173,6.173,0,0,0,1.471,1.529q0,2.267-4.587,7.814-3.8,4.588-7.644,9.175-5.382,6.57-5.891,8.155c-.075.265-.169.4-.282.4-.19,0-.265-.189-.227-.567q.4-2.549,11.949-16.706,1.924-2.322,3.057-3.908a7.116,7.116,0,0,0,1.473-2.944c0-.189-.077-.284-.227-.284q-.683,0-2.785,2.492-15.45,18.292-15.054,26.9.115,2.154,1.594,2.153a3.97,3.97,0,0,0,2.791-1.529,36.1,36.1,0,0,0,4.723-6.116,13.058,13.058,0,0,1,1.4-2.087q.306-.43.65-.874c2.34-3.01,4.587-4.457,6.739-4.458a6.158,6.158,0,0,1,2.665.71,2.69,2.69,0,0,1,1.413,2.066A4.135,4.135,0,0,1,603,402.984q-.678.568-4.644,3-2.832,1.7-3.227,2.774c-.113.265-.265.379-.454.34-.15-.075-.188-.245-.113-.509a9.6,9.6,0,0,1,3.422-4.021,38.865,38.865,0,0,0,4.106-3.341,2.522,2.522,0,0,0,.685-1.473.653.653,0,0,0-.742-.736,2.819,2.819,0,0,0-1.48.565,15.69,15.69,0,0,0-6.952,9.23,5.1,5.1,0,0,0-.172,1.246,1.728,1.728,0,0,0,1.983,1.926,5.249,5.249,0,0,0,2.66-.794,10.076,10.076,0,0,0,2.434-2.026q1.7-2.158,3.287-4.429a15.168,15.168,0,0,0,2.038-3.681,4.946,4.946,0,0,1,2.605-4.3,7.656,7.656,0,0,1,5.04-1.415q.453.055,1.925,2.561a.212.212,0,0,1-.113.326c-.113.113-.265.113-.454,0h-.565a10.136,10.136,0,0,0-4.362,1.189q-2.775,1.3-2.547,2.719a2.41,2.41,0,0,0,1.189,1.529,13.281,13.281,0,0,1,2.265,1.925,4.1,4.1,0,0,1,1.051,2.169q1.122-1.483,2.2-3.018a15.113,15.113,0,0,0,2.038-3.681,4.946,4.946,0,0,1,2.605-4.3,7.656,7.656,0,0,1,5.041-1.415q.453.055,1.925,2.561A.212.212,0,0,1,625.56,398.227Z" transform="translate(-580.179 -376.699)" fill="#141639"/>
        </g>
      </g>
    </g>
    <g id="Group_2880" data-name="Group 2880" transform="translate(201.775 417.658)">
      <path id="Path_6" data-name="Path 6" d="M206.611,653.935v-8.7h3.149a2.535,2.535,0,0,1,1.775.681,2.178,2.178,0,0,1,.742,1.69,1.837,1.837,0,0,1-1.179,1.812v.049a2.115,2.115,0,0,1,1.07.76,2.018,2.018,0,0,1,.4,1.234,2.294,2.294,0,0,1-.778,1.775,2.62,2.62,0,0,1-1.86.705Zm1.119-7.635v2.662h2.03a1.353,1.353,0,0,0,1-.4,1.292,1.292,0,0,0,.012-1.86,1.285,1.285,0,0,0-.961-.4Zm0,3.708v2.857h2.249a1.432,1.432,0,0,0,1.447-1.435,1.366,1.366,0,0,0-.425-1,1.45,1.45,0,0,0-1.07-.426Z" transform="translate(-206.611 -645.035)" fill="#141639"/>
      <path id="Path_7" data-name="Path 7" d="M258.815,645.23v1.07h-3.963v2.76h3.574v1.045h-3.574v2.76h3.963v1.07h-5.082v-8.7Z" transform="translate(-246.511 -645.035)" fill="#141639"/>
      <path id="Path_8" data-name="Path 8" d="M296.02,649.886v4.048H294.9v-4.048l-2.93-4.656h1.313l2.152,3.538h.049l2.1-3.538H298.9Z" transform="translate(-278.889 -645.035)" fill="#141639"/>
      <path id="Path_9" data-name="Path 9" d="M346.852,648.507a4.412,4.412,0,0,1-1.289,3.234,4.52,4.52,0,0,1-6.371,0,4.7,4.7,0,0,1,0-6.468,4.505,4.505,0,0,1,6.371.012A4.4,4.4,0,0,1,346.852,648.507Zm-7.805,0a3.449,3.449,0,0,0,.948,2.493,3.2,3.2,0,0,0,2.383.985,3.156,3.156,0,0,0,2.371-.985,3.714,3.714,0,0,0,0-4.985,3.155,3.155,0,0,0-2.371-.985,3.2,3.2,0,0,0-2.383.985A3.448,3.448,0,0,0,339.047,648.507Z" transform="translate(-317.783 -643.96)" fill="#141639"/>
      <path id="Path_10" data-name="Path 10" d="M406.058,653.935h-1.119v-8.7H406.3L410.531,652h.049l-.049-1.678V645.23h1.119v8.7h-1.167l-4.425-7.1h-.049l.049,1.677Z" transform="translate(-374.545 -645.035)" fill="#141639"/>
      <path id="Path_11" data-name="Path 11" d="M460.154,653.935v-8.7h2.662a4.343,4.343,0,0,1,3.2,1.2,4.711,4.711,0,0,1,0,6.3,4.355,4.355,0,0,1-3.2,1.2Zm1.119-7.635v6.565h1.544a3.286,3.286,0,1,0,0-6.565Z" transform="translate(-421.298 -645.035)" fill="#141639"/>
      <path id="Path_12" data-name="Path 12" d="M537.009,648.507a4.412,4.412,0,0,1-1.289,3.234,4.52,4.52,0,0,1-6.371,0,4.7,4.7,0,0,1,0-6.468,4.505,4.505,0,0,1,6.371.012A4.4,4.4,0,0,1,537.009,648.507Zm-7.805,0a3.448,3.448,0,0,0,.948,2.493,3.2,3.2,0,0,0,2.383.985,3.155,3.155,0,0,0,2.371-.985,3.714,3.714,0,0,0,0-4.985,3.155,3.155,0,0,0-2.371-.985,3.194,3.194,0,0,0-2.383.985A3.447,3.447,0,0,0,529.2,648.507Z" transform="translate(-478.798 -643.96)" fill="#141639"/>
      <path id="Path_13" data-name="Path 13" d="M596.213,653.935h-1.118v-8.7h2.966a2.715,2.715,0,0,1,1.927.747,2.5,2.5,0,0,1,.207,3.441,2.62,2.62,0,0,1-1.49.893l-.024.037,2.444,3.537v.049H599.8l-2.346-3.526h-1.24Zm0-7.635v3.064h1.8a1.628,1.628,0,0,0,1.155-.444,1.447,1.447,0,0,0,.474-1.1,1.536,1.536,0,0,0-1.557-1.52Z" transform="translate(-535.559 -645.035)" fill="#141639"/>
      <path id="Path_14" data-name="Path 14" d="M646.973,648.86a3.926,3.926,0,0,1-1.082,2.906,4.192,4.192,0,0,1-3.2,1.289,4.547,4.547,0,1,1,0-9.094,4.837,4.837,0,0,1,1.811.341,3.623,3.623,0,0,1,1.4.96l-.8.8a2.7,2.7,0,0,0-1.039-.76,3.434,3.434,0,0,0-1.367-.273,3.274,3.274,0,0,0-2.407.985,3.68,3.68,0,0,0,0,4.985,3.275,3.275,0,0,0,2.407.985,3.237,3.237,0,0,0,2.164-.729,2.907,2.907,0,0,0,1-2.006h-3.161V648.2h4.219A3.729,3.729,0,0,1,646.973,648.86Z" transform="translate(-572.033 -643.96)" fill="#141639"/>
      <path id="Path_15" data-name="Path 15" d="M700.179,653.935h-1.24l3.283-8.7h1.264l3.282,8.7h-1.24l-.839-2.359H701.03Zm2.65-7.331-1.422,3.927H704.3l-1.423-3.927Z" transform="translate(-623.488 -645.035)" fill="#141639"/>
      <path id="Path_16" data-name="Path 16" d="M757.81,653.935h-1.119v-8.7h1.362L762.284,652h.048l-.048-1.678V645.23H763.4v8.7h-1.167l-4.425-7.1h-.049l.049,1.677Z" transform="translate(-672.389 -645.035)" fill="#141639"/>
      <path id="Path_17" data-name="Path 17" d="M813.027,653.935h-1.119v-8.7h1.119Z" transform="translate(-719.144 -645.035)" fill="#141639"/>
      <path id="Path_18" data-name="Path 18" d="M831.581,653.054a4.591,4.591,0,0,1-3.234-7.781,4.343,4.343,0,0,1,3.234-1.313,4.025,4.025,0,0,1,3.2,1.422l-.8.778a2.972,2.972,0,0,0-2.4-1.131,3.285,3.285,0,0,0-2.419.972,3.746,3.746,0,0,0,0,5.009,3.283,3.283,0,0,0,2.419.973,3.406,3.406,0,0,0,2.638-1.276l.815.79a4.216,4.216,0,0,1-1.52,1.149A4.632,4.632,0,0,1,831.581,653.054Z" transform="translate(-731.972 -643.96)" fill="#141639"/>
    </g>
  </g>
</svg>
