<svg xmlns="http://www.w3.org/2000/svg" width="81.511" height="20.831" viewBox="0 0 81.511 20.831">
  <g id="paypal" transform="translate(0 -187.6)">
    <path id="Path_7324" data-name="Path 7324" d="M354.057,221.2h-4.4a.86.86,0,0,0-.647.518L347.2,233.1a.343.343,0,0,0,.388.388h2.329a.343.343,0,0,0,.388-.388l.518-3.235a.592.592,0,0,1,.647-.518h1.423q4.464,0,5.046-4.27a3.391,3.391,0,0,0-.518-2.846,5.218,5.218,0,0,0-3.364-1.035m.518,4.27c-.259,1.553-1.423,1.553-2.588,1.553h-.776l.518-2.976c0-.129.129-.259.388-.259h.259c.776,0,1.553,0,1.941.518.259.129.259.518.259,1.164" transform="translate(-291.048 -28.166)" fill="#139ad6"/>
    <g id="Group_4810" data-name="Group 4810" transform="translate(24.453 193.034)">
      <path id="Path_7325" data-name="Path 7325" d="M158.057,221.2h-4.4a.86.86,0,0,0-.647.518L151.2,233.1a.343.343,0,0,0,.388.388h2.07a.86.86,0,0,0,.647-.518l.518-3.105a.592.592,0,0,1,.647-.518h1.423q4.464,0,5.046-4.27a3.391,3.391,0,0,0-.518-2.846,4.973,4.973,0,0,0-3.364-1.035m.518,4.27c-.259,1.553-1.423,1.553-2.588,1.553h-.647l.518-2.976c0-.129.129-.259.388-.259h.259c.776,0,1.553,0,1.941.518a1.386,1.386,0,0,1,.129,1.164" transform="translate(-151.2 -221.2)" fill="#263b80"/>
      <path id="Path_7326" data-name="Path 7326" d="M223.942,245.459h-2.07c-.129,0-.388.129-.388.259l-.129.647-.129-.259a3.043,3.043,0,0,0-2.458-.906,4.972,4.972,0,0,0-4.787,4.27,3.856,3.856,0,0,0,.776,3.235,3.26,3.26,0,0,0,2.717,1.035,4.135,4.135,0,0,0,2.976-1.164l-.129.647a.343.343,0,0,0,.388.388h1.941a.86.86,0,0,0,.647-.518l1.164-7.245c-.129-.129-.388-.388-.518-.388m-2.976,4.14a2.5,2.5,0,0,1-2.458,2.07,2.069,2.069,0,0,1-1.423-.518,2.759,2.759,0,0,1-.388-1.553,2.308,2.308,0,0,1,3.752-1.553,2.259,2.259,0,0,1,.518,1.553" transform="translate(-203.759 -241.319)" fill="#263b80"/>
    </g>
    <path id="Path_7327" data-name="Path 7327" d="M419.142,245.459h-2.07c-.129,0-.388.129-.388.259l-.129.647-.129-.259a3.044,3.044,0,0,0-2.458-.906,4.972,4.972,0,0,0-4.787,4.27,3.856,3.856,0,0,0,.776,3.235,3.26,3.26,0,0,0,2.717,1.035,4.136,4.136,0,0,0,2.976-1.164l-.129.647a.343.343,0,0,0,.388.388h1.941a.86.86,0,0,0,.647-.518l1.164-7.245c-.129-.129-.259-.388-.518-.388m-2.976,4.14a2.5,2.5,0,0,1-2.458,2.07,2.069,2.069,0,0,1-1.423-.518,2.759,2.759,0,0,1-.388-1.553,2.308,2.308,0,0,1,3.752-1.553,1.485,1.485,0,0,1,.518,1.553" transform="translate(-342.936 -48.284)" fill="#139ad6"/>
    <path id="Path_7328" data-name="Path 7328" d="M293.962,246.8h-2.2a.672.672,0,0,0-.518.259l-2.846,4.4-1.294-4.14a.6.6,0,0,0-.647-.388h-2.07c-.259,0-.388.259-.388.518l2.329,6.857-2.2,3.105c-.129.259,0,.647.259.647h2.07a.672.672,0,0,0,.518-.259l7.116-10.221c.388-.388.129-.776-.129-.776" transform="translate(-238.069 -49.626)" fill="#263b80"/>
    <path id="Path_7329" data-name="Path 7329" d="M477.011,222,475.2,233.64a.343.343,0,0,0,.388.388H477.4a.86.86,0,0,0,.647-.518l1.811-11.386a.343.343,0,0,0-.388-.388H477.4c-.129-.129-.259,0-.388.259" transform="translate(-398.347 -28.573)" fill="#139ad6"/>
    <path id="Path_7330" data-name="Path 7330" d="M14.879,189.153c-.906-1.035-2.588-1.553-4.917-1.553H3.493a1.11,1.11,0,0,0-.906.776L0,205.325a.592.592,0,0,0,.518.647H4.528l1.035-6.34v.259a1.11,1.11,0,0,1,.906-.776H8.41c3.752,0,6.6-1.553,7.5-5.822V192.9h0a4.519,4.519,0,0,0-1.035-3.752" transform="translate(0 0)" fill="#263b80"/>
    <path id="Path_7331" data-name="Path 7331" d="M37.244,220.4h0v.388c-.906,4.4-3.752,5.822-7.5,5.822H27.8a1.11,1.11,0,0,0-.906.776L25.6,235.279a.474.474,0,0,0,.518.518h3.364a.725.725,0,0,0,.776-.647v-.129l.647-4.011v-.259a.725.725,0,0,1,.776-.647H32.2c3.235,0,5.822-1.294,6.469-5.175a4.757,4.757,0,0,0-.647-3.881,1.325,1.325,0,0,0-.776-.647" transform="translate(-21.46 -27.495)" fill="#139ad6"/>
    <path id="Path_7332" data-name="Path 7332" d="M43.716,215.988c-.129,0-.259-.129-.388-.129a.475.475,0,0,1-.388-.129,6.835,6.835,0,0,0-1.682-.129H36.211a.475.475,0,0,0-.388.129.712.712,0,0,0-.388.647L34.4,223.1v.259a1.11,1.11,0,0,1,.906-.776h1.941c3.752,0,6.6-1.553,7.5-5.822a.475.475,0,0,1,.129-.388c-.259-.129-.388-.259-.647-.259-.388-.129-.388-.129-.518-.129" transform="translate(-28.837 -23.472)" fill="#232c65"/>
  </g>
</svg>
