<?xml version="1.0" encoding="UTF-8"?>
<svg xmlns="http://www.w3.org/2000/svg" xmlns:xlink="http://www.w3.org/1999/xlink" width="20pt" height="20pt" viewBox="0 0 20 20" version="1.1">
<g id="surface1">
<path style=" stroke:none;fill-rule:nonzero;fill:rgb(0%,0%,0%);fill-opacity:1;" d="M 19.21875 9.21875 L 10.78125 9.21875 L 10.78125 0.78125 C 10.78125 0.351562 10.429688 0 10 0 C 9.570312 0 9.21875 0.351562 9.21875 0.78125 L 9.21875 9.21875 L 0.78125 9.21875 C 0.351562 9.21875 0 9.570312 0 10 C 0 10.429688 0.351562 10.78125 0.78125 10.78125 L 9.21875 10.78125 L 9.21875 19.21875 C 9.21875 19.648438 9.570312 20 10 20 C 10.429688 20 10.78125 19.648438 10.78125 19.21875 L 10.78125 10.78125 L 19.21875 10.78125 C 19.648438 10.78125 20 10.429688 20 10 C 20 9.570312 19.648438 9.21875 19.21875 9.21875 Z M 19.21875 9.21875 "/>
</g>
</svg>
