<?xml version="1.0" encoding="UTF-8"?>
<svg xmlns="http://www.w3.org/2000/svg" xmlns:xlink="http://www.w3.org/1999/xlink" width="13pt" height="13pt" viewBox="0 0 13 13" version="1.1">
<g id="surface1">
<path style=" stroke:none;fill-rule:nonzero;fill:rgb(0%,0%,0%);fill-opacity:1;" d="M 4.148438 10.113281 C 3.398438 10.113281 2.789062 10.71875 2.789062 11.46875 C 2.789062 12.21875 3.398438 12.824219 4.148438 12.824219 C 4.898438 12.824219 5.503906 12.21875 5.503906 11.46875 C 5.503906 10.71875 4.898438 10.113281 4.148438 10.113281 Z M 4.148438 12.222656 C 3.730469 12.222656 3.394531 11.886719 3.394531 11.46875 C 3.394531 11.050781 3.730469 10.714844 4.148438 10.714844 C 4.5625 10.714844 4.902344 11.050781 4.902344 11.46875 C 4.902344 11.886719 4.5625 12.222656 4.148438 12.222656 Z M 4.148438 12.222656 "/>
<path style=" stroke:none;fill-rule:nonzero;fill:rgb(0%,0%,0%);fill-opacity:1;" d="M 9.878906 10.113281 C 9.128906 10.113281 8.519531 10.71875 8.519531 11.46875 C 8.519531 12.21875 9.128906 12.824219 9.878906 12.824219 C 10.625 12.824219 11.234375 12.21875 11.234375 11.46875 C 11.234375 10.71875 10.625 10.113281 9.878906 10.113281 Z M 9.878906 12.222656 C 9.460938 12.222656 9.125 11.886719 9.125 11.46875 C 9.125 11.050781 9.460938 10.714844 9.878906 10.714844 C 10.292969 10.714844 10.632812 11.050781 10.632812 11.46875 C 10.632812 11.886719 10.292969 12.222656 9.878906 12.222656 Z M 9.878906 12.222656 "/>
<path style=" stroke:none;fill-rule:nonzero;fill:rgb(0%,0%,0%);fill-opacity:1;" d="M 12.9375 2.195312 C 12.875 2.125 12.789062 2.082031 12.695312 2.074219 L 2.878906 1.9375 L 2.609375 1.109375 C 2.417969 0.554688 1.898438 0.179688 1.3125 0.175781 L 0.300781 0.175781 C 0.136719 0.175781 0 0.308594 0 0.476562 C 0 0.640625 0.136719 0.777344 0.300781 0.777344 L 1.3125 0.777344 C 1.640625 0.785156 1.929688 0.996094 2.035156 1.304688 L 3.949219 7.082031 L 3.800781 7.425781 C 3.632812 7.859375 3.683594 8.347656 3.9375 8.738281 C 4.1875 9.121094 4.609375 9.359375 5.066406 9.371094 L 10.933594 9.371094 C 11.097656 9.371094 11.234375 9.238281 11.234375 9.070312 C 11.234375 8.90625 11.097656 8.769531 10.933594 8.769531 L 5.066406 8.769531 C 4.808594 8.761719 4.570312 8.628906 4.433594 8.40625 C 4.296875 8.191406 4.269531 7.921875 4.359375 7.683594 L 4.480469 7.414062 L 10.828125 6.75 C 11.523438 6.671875 12.097656 6.164062 12.261719 5.480469 L 12.984375 2.449219 C 13.015625 2.363281 13 2.265625 12.9375 2.195312 Z M 11.671875 5.347656 C 11.574219 5.785156 11.199219 6.109375 10.753906 6.144531 L 4.480469 6.792969 L 3.078125 2.542969 L 12.320312 2.675781 Z M 11.671875 5.347656 "/>
</g>
</svg>
