<svg xmlns="http://www.w3.org/2000/svg" width="105.742" height="48.686" viewBox="0 0 105.742 48.686">
  <g id="Pre-1" transform="translate(0 48.686) rotate(-90)">
    <path id="Path_5857" data-name="Path 5857" d="M46.506,25.263,25.621,4.376V60.249a1.282,1.282,0,0,1-2.564,0V4.376L2.172,25.263A1.282,1.282,0,0,1,.36,23.451L23.434.377a1.282,1.282,0,0,1,1.813,0l0,0L48.324,23.451a1.282,1.282,0,0,1-1.813,1.813Z" transform="translate(0.003 0)" fill="#141639"/>
    <path id="Path_5858" data-name="Path 5858" d="M24.342,0a1.281,1.281,0,0,0-.908.374L.36,23.449a1.282,1.282,0,0,0,1.813,1.813L24.342,3.095,46.508,25.261a1.282,1.282,0,0,0,1.813-1.813L25.247.374A1.282,1.282,0,0,0,24.342,0Z" transform="translate(0 0)" fill="#141639"/>
    <path id="Path_5859" data-name="Path 5859" d="M1.282,0A1.282,1.282,0,0,0,0,1.282V104.46a1.282,1.282,0,1,0,2.564,0V1.282A1.282,1.282,0,0,0,1.282,0Z" transform="translate(23.06)" fill="#141639"/>
  </g>
</svg>
