<svg id="supermarket" xmlns="http://www.w3.org/2000/svg" width="18.372" height="16.2" viewBox="0 0 18.372 16.2">
  <g id="Group_2936" data-name="Group 2936" transform="translate(0 0)">
    <g id="Group_2935" data-name="Group 2935">
      <path id="Path_3266" data-name="Path 3266" d="M18.226,25.084a.686.686,0,0,0-.541-.264H4.242l-.619-2.588a.688.688,0,0,0-.668-.528H.687a.687.687,0,1,0,0,1.374H2.413l2.234,9.346a.687.687,0,0,0,.668.528h10.7a.687.687,0,0,0,.667-.522l1.672-6.758A.688.688,0,0,0,18.226,25.084ZM5.857,31.578l10.95-5.383Z" transform="translate(0 -21.705)" fill="#fff"/>
    </g>
  </g>
  <g id="Group_2938" data-name="Group 2938" transform="translate(4.555 12.848)">
    <g id="Group_2937" data-name="Group 2937">
      <path id="Path_3267" data-name="Path 3267" d="M111.482,362.612a1.676,1.676,0,1,0,1.676,1.676A1.678,1.678,0,0,0,111.482,362.612Z" transform="translate(-109.806 -362.612)" fill="#fff"/>
    </g>
  </g>
  <g id="Group_4728" data-name="Group 4728" transform="translate(12.555 12.848)">
    <g id="Group_2937-2" data-name="Group 2937">
      <path id="Path_3267-2" data-name="Path 3267" d="M111.482,362.612a1.676,1.676,0,1,0,1.676,1.676A1.678,1.678,0,0,0,111.482,362.612Z" transform="translate(-109.806 -362.612)" fill="#fff"/>
    </g>
  </g>
</svg>
