<svg xmlns="http://www.w3.org/2000/svg" width="16.406" height="18.667" viewBox="0 0 16.406 18.667">
  <g id="user" transform="translate(-31)">
    <g id="Group_4725" data-name="Group 4725" transform="translate(34.281)">
      <g id="Group_4724" data-name="Group 4724">
        <path id="Path_5860" data-name="Path 5860" d="M125.922,0a4.922,4.922,0,1,0,4.922,4.922A4.927,4.927,0,0,0,125.922,0Z" transform="translate(-121)" fill="#fff"/>
      </g>
    </g>
    <g id="Group_4727" data-name="Group 4727" transform="translate(31 10.937)">
      <g id="Group_4726" data-name="Group 4726">
        <path id="Path_5861" data-name="Path 5861" d="M45.327,302.122A7.016,7.016,0,0,0,40.3,300H38.109a7.017,7.017,0,0,0-5.03,2.122A7.173,7.173,0,0,0,31,307.182a.547.547,0,0,0,.547.547H46.859a.547.547,0,0,0,.547-.547A7.173,7.173,0,0,0,45.327,302.122Z" transform="translate(-31 -300)" fill="#fff"/>
      </g>
    </g>
  </g>
</svg>
