<svg id="wishlist" xmlns="http://www.w3.org/2000/svg" width="13.445" height="12.493" viewBox="0 0 13.445 12.493">
  <g id="Group_2928" data-name="Group 2928" transform="translate(0 0)">
    <path id="Path_3262" data-name="Path 3262" d="M12.345,18.071a3.674,3.674,0,0,0-5.385,0l-.237.251-.237-.251a3.676,3.676,0,0,0-5.2-.191q-.1.092-.191.191a4.123,4.123,0,0,0,0,5.607l5.275,5.563a.481.481,0,0,0,.679.018l.018-.018,5.273-5.563A4.123,4.123,0,0,0,12.345,18.071Zm-.7,4.944h0l-4.926,5.2L1.8,23.015a3.151,3.151,0,0,1,0-4.284,2.716,2.716,0,0,1,3.838-.154q.08.074.154.154l.586.618a.5.5,0,0,0,.7,0l.586-.617a2.716,2.716,0,0,1,3.838-.154q.08.074.154.154A3.122,3.122,0,0,1,11.65,23.015Z" transform="translate(0 -16.896)"/>
  </g>
</svg>
